<!-- Generated by IcoMoon.io -->
<svg version="1.1" xmlns="http://www.w3.org/2000/svg" width="32" height="32" viewBox="0 0 32 32">
<title>Devices</title>
<path fill="#fff" d="M1.333 6.175c0-0.37 0.127-0.683 0.381-0.936 0.265-0.265 0.582-0.397 0.952-0.397h9.333v1.333h-9.333v16h9.333v1.333h-9.333c-0.37 0-0.688-0.127-0.952-0.381-0.254-0.264-0.381-0.582-0.381-0.952v-16zM6.857 27.318c-0.127-0.137-0.19-0.296-0.19-0.476s0.064-0.333 0.19-0.46c0.138-0.138 0.296-0.206 0.476-0.206h4.667v1.333h-4.667c-0.18 0-0.339-0.064-0.476-0.19zM29.333 4.842c0.37 0 0.682 0.132 0.936 0.397 0.265 0.254 0.397 0.566 0.397 0.936v20c0 0.37-0.132 0.688-0.397 0.952-0.254 0.254-0.566 0.381-0.936 0.381h-12c-0.37 0-0.688-0.127-0.952-0.381-0.254-0.264-0.381-0.582-0.381-0.952v-20c0-0.37 0.127-0.683 0.381-0.936 0.265-0.265 0.582-0.397 0.952-0.397h12zM17.349 26.175l11.984-0.016-0.016-19.968h-11.984l0.016 19.984zM20.508 16.683c0.783-0.783 1.725-1.175 2.825-1.175s2.042 0.392 2.825 1.175c0.783 0.783 1.175 1.725 1.175 2.825s-0.392 2.042-1.175 2.825c-0.783 0.783-1.725 1.175-2.825 1.175s-2.042-0.391-2.825-1.175c-0.783-0.783-1.175-1.725-1.175-2.825s0.391-2.042 1.175-2.825zM21.444 21.398c0.529 0.518 1.159 0.778 1.889 0.778s1.354-0.259 1.873-0.778c0.529-0.529 0.794-1.159 0.794-1.889s-0.265-1.355-0.794-1.873c-0.519-0.529-1.143-0.794-1.873-0.794s-1.36 0.265-1.889 0.794c-0.518 0.519-0.778 1.143-0.778 1.873s0.259 1.36 0.778 1.889zM24.27 11.128c-0.254 0.254-0.566 0.381-0.936 0.381s-0.688-0.127-0.952-0.381c-0.254-0.265-0.381-0.582-0.381-0.952s0.127-0.683 0.381-0.937c0.265-0.265 0.582-0.397 0.952-0.397s0.682 0.132 0.936 0.397c0.265 0.254 0.397 0.566 0.397 0.937s-0.132 0.688-0.397 0.952z"></path>
</svg>
