<!-- Generated by IcoMoon.io -->
<svg version="1.1" xmlns="http://www.w3.org/2000/svg" width="32" height="32" viewBox="0 0 32 32">
<title>Heart-green</title>
<path fill="#57b560" d="M29.261 3.955c1.826 1.826 2.739 4.039 2.739 6.639 0 2.588-0.913 4.795-2.739 6.621l-10.068 11.882c-0.907 0.919-1.971 1.378-3.193 1.378-0.593 0-1.155-0.115-1.687-0.345-0.52-0.242-0.949-0.587-1.288-1.034l-10.286-11.882c-1.826-1.826-2.739-4.033-2.739-6.621 0-2.6 0.913-4.813 2.739-6.639 1.137-1.137 2.449-1.941 3.937-2.413 1.5-0.472 3.017-0.562 4.553-0.272s2.896 0.955 4.082 1.995c0.157 0.157 0.387 0.236 0.689 0.236 0.133 0 0.254-0.018 0.363-0.054 0.121-0.036 0.206-0.073 0.254-0.109l0.073-0.073c1.197-0.98 2.558-1.615 4.082-1.905s3.035-0.212 4.535 0.236c1.512 0.447 2.83 1.234 3.955 2.358z"></path>
</svg>
