<!-- Generated by IcoMoon.io -->
<svg version="1.1" xmlns="http://www.w3.org/2000/svg" width="32" height="32" viewBox="0 0 32 32">
<title>More</title>
<path fill="#b3b3b3" d="M0.783 14.116c0.522-0.522 1.15-0.783 1.884-0.783s1.362 0.261 1.884 0.783c0.522 0.522 0.783 1.15 0.783 1.884 0 0.48-0.12 0.924-0.36 1.333s-0.564 0.734-0.974 0.974c-0.409 0.24-0.854 0.36-1.333 0.36-0.734 0-1.362-0.261-1.884-0.783s-0.783-1.15-0.783-1.884c0-0.734 0.261-1.362 0.783-1.884zM14.116 14.116c0.522-0.522 1.15-0.783 1.884-0.783s1.362 0.261 1.884 0.783c0.522 0.522 0.783 1.15 0.783 1.884s-0.261 1.362-0.783 1.884c-0.522 0.522-1.15 0.783-1.884 0.783s-1.362-0.261-1.884-0.783c-0.522-0.522-0.783-1.15-0.783-1.884s0.261-1.362 0.783-1.884zM27.45 14.116c0.522-0.522 1.15-0.783 1.884-0.783s1.362 0.261 1.884 0.783c0.522 0.522 0.783 1.15 0.783 1.884s-0.261 1.362-0.783 1.884c-0.522 0.522-1.15 0.783-1.884 0.783s-1.362-0.261-1.884-0.783c-0.522-0.522-0.783-1.15-0.783-1.884s0.261-1.362 0.783-1.884z"></path>
</svg>
