<!-- Generated by IcoMoon.io -->
<svg version="1.1" xmlns="http://www.w3.org/2000/svg" width="32" height="32" viewBox="0 0 32 32">
<title>Play-circle</title>
<path fill="#57b560" d="M32 16c0 8.837-7.163 16-16 16s-16-7.163-16-16c0-8.837 7.163-16 16-16s16 7.163 16 16z"></path>
<path fill="#fff" d="M13 21.421c-0.222 0.132-0.444 0.135-0.667 0.008-0.222-0.132-0.333-0.325-0.333-0.579v-9.698c0-0.254 0.111-0.444 0.333-0.571 0.222-0.132 0.444-0.132 0.667 0l8.389 4.841c0.222 0.132 0.333 0.325 0.333 0.579s-0.111 0.447-0.333 0.579l-8.389 4.841z"></path>
</svg>
