<!-- Generated by IcoMoon.io -->
<svg version="1.1" xmlns="http://www.w3.org/2000/svg" width="32" height="32" viewBox="0 0 32 32">
<title>Download-green</title>
<path fill="#57b560" d="M9.783 3.337c1.781-0.763 3.648-1.145 5.601-1.145s3.821 0.382 5.601 1.145c1.781 0.763 3.312 1.791 4.594 3.083 1.292 1.282 2.32 2.813 3.083 4.594s1.145 3.648 1.145 5.601-0.382 3.821-1.145 5.601c-0.763 1.781-1.791 3.317-3.083 4.609-1.282 1.282-2.813 2.305-4.594 3.068s-3.648 1.145-5.601 1.145-3.821-0.382-5.601-1.145c-1.781-0.763-3.317-1.786-4.609-3.068-1.282-1.292-2.305-2.829-3.068-4.609s-1.145-3.648-1.145-5.601c0-1.954 0.382-3.821 1.145-5.601s1.786-3.312 3.068-4.594c1.292-1.292 2.829-2.32 4.609-3.083zM15.385 25.3l5.968-6.914-1.465-1.252-3.541 4.106v-12.317h-1.923v12.302l-3.526-4.090-1.45 1.252 5.937 6.914z"></path>
</svg>
