<!-- Generated by IcoMoon.io -->
<svg version="1.1" xmlns="http://www.w3.org/2000/svg" width="32" height="32" viewBox="0 0 32 32">
<title>Download-stroke</title>
<path fill="#b2b2b2" d="M16.696 22.079l4.77-5.515 0.778 0.679-6.062 7.039-6.062-7.039 0.795-0.679 4.737 5.499v-13.714h1.043v13.731zM10.286 2.253c1.877-0.806 3.837-1.209 5.88-1.209 2.054 0 4.014 0.403 5.88 1.209 1.877 0.795 3.489 1.866 4.836 3.213s2.418 2.959 3.213 4.836c0.806 1.866 1.209 3.826 1.209 5.88 0 2.043-0.403 4.003-1.209 5.88-0.795 1.866-1.866 3.473-3.213 4.82s-2.959 2.424-4.836 3.23c-1.866 0.795-3.826 1.192-5.88 1.192-2.043 0-4.003-0.398-5.88-1.192-1.866-0.806-3.473-1.883-4.82-3.23s-2.424-2.954-3.23-4.82c-0.795-1.877-1.193-3.837-1.193-5.88 0-2.054 0.397-4.014 1.193-5.88 0.806-1.877 1.883-3.489 3.23-4.836s2.954-2.418 4.82-3.213zM10.7 29.151c1.745 0.74 3.567 1.11 5.466 1.11 1.91 0 3.732-0.37 5.466-1.11 1.745-0.751 3.246-1.756 4.505-3.015s2.258-2.755 2.998-4.489c0.751-1.745 1.126-3.567 1.126-5.466 0-1.91-0.375-3.732-1.126-5.466-0.74-1.745-1.739-3.246-2.998-4.505s-2.761-2.258-4.505-2.998c-1.734-0.751-3.555-1.126-5.466-1.126-1.899 0-3.721 0.375-5.466 1.126-1.734 0.74-3.23 1.739-4.489 2.998s-2.264 2.761-3.014 4.505c-0.74 1.734-1.11 3.556-1.11 5.466 0 1.899 0.37 3.721 1.11 5.466 0.751 1.734 1.756 3.23 3.014 4.489s2.755 2.264 4.489 3.015z"></path>
</svg>
