<!-- Generated by IcoMoon.io -->
<svg version="1.1" xmlns="http://www.w3.org/2000/svg" width="32" height="32" viewBox="0 0 32 32">
<title>Heart-stroke</title>
<path fill="#b9babb" d="M17.576 29.511c-0.5 0.225-1.025 0.338-1.576 0.338s-1.082-0.112-1.595-0.338c-0.5-0.238-0.925-0.569-1.276-0.994l-10.28-12.025c-0.55-0.563-1.026-1.182-1.426-1.857-0.388-0.675-0.682-1.394-0.882-2.157s-0.3-1.544-0.3-2.345c0-1.201 0.225-2.351 0.675-3.452 0.463-1.113 1.119-2.095 1.97-2.945 1.101-1.088 2.37-1.851 3.808-2.289s2.895-0.506 4.371-0.206c1.476 0.3 2.808 0.944 3.996 1.932 0.263 0.225 0.575 0.338 0.938 0.338 0.338 0 0.644-0.106 0.919-0.319 0.713-0.6 1.488-1.075 2.326-1.426 0.85-0.35 1.707-0.563 2.57-0.638 0.875-0.088 1.745-0.050 2.608 0.113 0.863 0.15 1.695 0.444 2.495 0.882 0.8 0.425 1.532 0.963 2.195 1.613 0.85 0.85 1.501 1.832 1.951 2.945 0.463 1.101 0.694 2.257 0.694 3.47 0 1.201-0.231 2.351-0.694 3.452-0.45 1.101-1.101 2.076-1.951 2.926l-10.242 11.987c-0.35 0.425-0.782 0.756-1.294 0.994zM9.284 2.648c-0.963 0-1.907 0.188-2.833 0.563-0.913 0.375-1.726 0.925-2.439 1.651-0.713 0.7-1.257 1.507-1.632 2.42-0.375 0.9-0.563 1.851-0.563 2.851 0 0.663 0.081 1.313 0.244 1.951 0.175 0.625 0.425 1.219 0.75 1.782s0.725 1.082 1.201 1.557l10.317 12.062c0.438 0.525 0.994 0.788 1.67 0.788s1.232-0.263 1.67-0.788l10.28-12.024c1.488-1.488 2.232-3.264 2.232-5.328 0-1-0.188-1.951-0.563-2.851-0.375-0.913-0.919-1.72-1.632-2.42-1.363-1.376-3.008-2.107-4.934-2.195-1.913-0.088-3.614 0.488-5.102 1.726-0.075 0.063-0.175 0.138-0.3 0.225-0.125 0.075-0.35 0.175-0.675 0.3-0.325 0.113-0.65 0.169-0.975 0.169-0.338 0-0.669-0.056-0.994-0.169-0.325-0.125-0.55-0.231-0.675-0.319s-0.225-0.163-0.3-0.225c-1.376-1.151-2.958-1.726-4.746-1.726z"></path>
</svg>
