<!-- Generated by IcoMoon.io -->
<svg version="1.1" xmlns="http://www.w3.org/2000/svg" width="32" height="32" viewBox="0 0 32 32">
<title>Next</title>
<path fill="#fff" d="M4.089 1.822c-0.459-0.282-0.918-0.282-1.378 0-0.474 0.267-0.711 0.667-0.711 1.2v25.956c0 0.533 0.237 0.941 0.711 1.222 0.459 0.267 0.919 0.259 1.378-0.022l20.311-11.711v11.533c0 0.385 0.141 0.718 0.422 1 0.267 0.267 0.593 0.4 0.978 0.4h2.8c0.385 0 0.719-0.133 1-0.4 0.267-0.281 0.4-0.615 0.4-1v-28c0-0.385-0.133-0.711-0.4-0.978-0.281-0.281-0.615-0.422-1-0.422h-2.8c-0.385 0-0.711 0.141-0.978 0.422-0.281 0.267-0.422 0.593-0.422 0.978v11.533l-20.311-11.711z"></path>
</svg>
