<!-- Generated by IcoMoon.io -->
<svg version="1.1" xmlns="http://www.w3.org/2000/svg" width="32" height="32" viewBox="0 0 32 32">
<title>Pause-circle</title>
<path fill="#fff" d="M32 16c0 8.837-7.163 16-16 16s-16-7.163-16-16c0-8.837 7.163-16 16-16s16 7.163 16 16z"></path>
<path fill="#181718" d="M18.286 10.417c0-0.14 0.048-0.258 0.145-0.355 0.102-0.102 0.223-0.153 0.363-0.153h2.032c0.14 0 0.258 0.051 0.355 0.153 0.102 0.097 0.153 0.215 0.153 0.355v10.667c0 0.134-0.051 0.253-0.153 0.355-0.097 0.102-0.215 0.153-0.355 0.153h-2.032c-0.14 0-0.261-0.051-0.363-0.153-0.097-0.102-0.145-0.22-0.145-0.355v-10.667zM11.683 21.591c-0.14 0-0.261-0.051-0.363-0.153-0.097-0.102-0.145-0.22-0.145-0.355v-10.667c0-0.14 0.048-0.258 0.145-0.355 0.102-0.102 0.223-0.153 0.363-0.153h2.032c0.14 0 0.258 0.051 0.355 0.153 0.102 0.097 0.153 0.215 0.153 0.355v10.667c0 0.134-0.051 0.253-0.153 0.355-0.097 0.102-0.215 0.153-0.355 0.153h-2.032z"></path>
</svg>
