<!-- Generated by IcoMoon.io -->
<svg version="1.1" xmlns="http://www.w3.org/2000/svg" width="32" height="32" viewBox="0 0 32 32">
<title>Repeat</title>
<path fill="#bababa" d="M10.667 8.063c-2.201 0-4.085 0.783-5.651 2.349s-2.349 3.45-2.349 5.651c0 1.407 0.354 2.725 1.063 3.952l-1.159 0.667c-0.825-1.439-1.238-2.979-1.238-4.619 0-1.683 0.418-3.238 1.254-4.667 0.836-1.439 1.968-2.577 3.397-3.413 1.439-0.836 3-1.254 4.683-1.254h10.667v-3.333l6.349 3.667-6.349 3.667v-2.667h-10.667zM29.428 11.444c0.825 1.439 1.238 2.979 1.238 4.619 0 1.683-0.418 3.243-1.254 4.683-0.836 1.428-1.974 2.561-3.413 3.397-1.428 0.836-2.984 1.254-4.667 1.254h-10.667v3.333l-6.349-3.667 6.349-3.667v2.667h10.667c2.201 0 4.085-0.783 5.651-2.349s2.349-3.45 2.349-5.651c0-1.407-0.349-2.725-1.048-3.952l1.143-0.667z"></path>
</svg>
