<!-- Generated by IcoMoon.io -->
<svg version="1.1" xmlns="http://www.w3.org/2000/svg" width="32" height="32" viewBox="0 0 32 32">
<title>Search</title>
<path fill="#b3b3b3" d="M23.285 22.511l6.554 7.691-1.137 0.959-6.572-7.674c-2.262 1.717-4.808 2.576-7.638 2.576-1.717 0-3.363-0.332-4.938-0.995-1.563-0.675-2.913-1.575-4.050-2.7-1.125-1.137-2.025-2.487-2.7-4.050-0.663-1.575-0.995-3.221-0.995-4.938s0.332-3.357 0.995-4.92c0.675-1.575 1.575-2.925 2.7-4.050 1.137-1.137 2.487-2.037 4.050-2.7 1.575-0.675 3.221-1.012 4.938-1.012s3.357 0.337 4.92 1.012c1.575 0.663 2.925 1.563 4.050 2.7 1.137 1.125 2.037 2.475 2.7 4.050 0.675 1.563 1.012 3.203 1.012 4.92 0 1.184-0.16 2.333-0.48 3.446s-0.77 2.149-1.35 3.108c-0.568 0.947-1.255 1.806-2.061 2.576zM8.879 23.079c1.717 0.995 3.588 1.492 5.613 1.492s3.896-0.497 5.613-1.492c1.717-1.006 3.073-2.368 4.068-4.085 1.007-1.717 1.51-3.588 1.51-5.613s-0.503-3.896-1.51-5.613c-0.995-1.717-2.35-3.073-4.068-4.068-1.717-1.007-3.588-1.51-5.613-1.51s-3.896 0.503-5.613 1.51c-1.717 0.995-3.079 2.351-4.085 4.068-0.995 1.717-1.492 3.588-1.492 5.613s0.497 3.896 1.492 5.613c1.007 1.717 2.368 3.079 4.085 4.085z"></path>
</svg>
