<!-- Generated by IcoMoon.io -->
<svg version="1.1" xmlns="http://www.w3.org/2000/svg" width="32" height="32" viewBox="0 0 32 32">
<title>Settings</title>
<path fill="#fff" d="M29.333 18.206c0.688 0.296 1.175 0.778 1.46 1.444 0.286 0.656 0.291 1.318 0.016 1.984l-0.413 0.968c-0.265 0.656-0.73 1.122-1.397 1.397-0.656 0.275-1.318 0.275-1.984 0-0.466-0.159-0.926-0.185-1.381-0.079-0.444 0.095-0.831 0.302-1.159 0.619-0.318 0.328-0.529 0.714-0.635 1.159-0.095 0.444-0.069 0.878 0.079 1.302 0.275 0.698 0.28 1.381 0.016 2.048s-0.73 1.138-1.397 1.413l-0.984 0.413c-0.317 0.127-0.645 0.191-0.984 0.191-0.519 0-1-0.143-1.445-0.429-0.434-0.286-0.751-0.677-0.952-1.175-0.137-0.286-0.323-0.534-0.555-0.746-0.222-0.212-0.476-0.376-0.762-0.492-0.275-0.116-0.561-0.175-0.857-0.175-0.455 0-0.878 0.122-1.27 0.365s-0.683 0.572-0.873 0.984c-0.286 0.688-0.762 1.175-1.429 1.46s-1.328 0.291-1.984 0.016l-0.984-0.413c-0.656-0.275-1.122-0.741-1.397-1.397s-0.275-1.318 0-1.984c0.159-0.466 0.19-0.921 0.095-1.365-0.095-0.455-0.307-0.847-0.635-1.175-0.317-0.317-0.704-0.529-1.159-0.635-0.444-0.106-0.878-0.085-1.302 0.064-0.709 0.296-1.397 0.307-2.063 0.032-0.656-0.275-1.122-0.741-1.397-1.397l-0.413-0.984c-0.265-0.656-0.265-1.312 0-1.968 0.275-0.667 0.746-1.138 1.413-1.413 0.434-0.212 0.778-0.513 1.032-0.905s0.381-0.815 0.381-1.27c0-0.455-0.122-0.878-0.365-1.27s-0.571-0.682-0.984-0.873c-0.688-0.296-1.175-0.772-1.46-1.429-0.275-0.667-0.28-1.328-0.016-1.984l0.413-0.984c0.275-0.656 0.741-1.122 1.397-1.397 0.667-0.275 1.328-0.275 1.984 0 0.466 0.159 0.921 0.19 1.365 0.095 0.455-0.095 0.847-0.307 1.175-0.635 0.317-0.317 0.524-0.698 0.619-1.143 0.106-0.455 0.085-0.894-0.063-1.317-0.286-0.709-0.291-1.392-0.016-2.048 0.275-0.667 0.741-1.138 1.397-1.413l0.984-0.413c0.656-0.265 1.312-0.259 1.968 0.016 0.667 0.275 1.138 0.741 1.413 1.397 0.212 0.434 0.513 0.778 0.905 1.032s0.815 0.381 1.27 0.381c0.455 0 0.878-0.122 1.27-0.365s0.683-0.571 0.873-0.984c0.296-0.688 0.773-1.169 1.429-1.444 0.667-0.286 1.328-0.291 1.984-0.016l0.984 0.397c0.423 0.18 0.778 0.455 1.064 0.825s0.455 0.778 0.508 1.222c0.053 0.434-0.005 0.878-0.175 1.333-0.159 0.466-0.191 0.926-0.095 1.381 0.095 0.444 0.307 0.831 0.635 1.159 0.317 0.317 0.698 0.529 1.143 0.635 0.455 0.095 0.894 0.074 1.318-0.063l0.46 0.889-0.381-0.921c0.656-0.275 1.312-0.275 1.968 0 0.667 0.275 1.138 0.741 1.413 1.397l0.413 0.984c0.265 0.656 0.259 1.317-0.016 1.984-0.264 0.656-0.73 1.122-1.397 1.397-0.434 0.212-0.778 0.513-1.032 0.905s-0.381 0.815-0.381 1.27c0 0.455 0.122 0.878 0.365 1.27s0.571 0.682 0.984 0.873zM28.555 21.841l0.397-0.984c0.063-0.148 0.063-0.296 0-0.445-0.064-0.159-0.169-0.264-0.318-0.317l-0.19-0.095c-0.741-0.36-1.339-0.894-1.794-1.603-0.444-0.72-0.667-1.497-0.667-2.333s0.222-1.608 0.667-2.317c0.455-0.72 1.058-1.259 1.81-1.619 0.222-0.095 0.376-0.222 0.46-0.381 0.095-0.159 0.106-0.317 0.032-0.476l-0.397-0.984c-0.063-0.148-0.175-0.254-0.333-0.317-0.148-0.063-0.296-0.063-0.445 0l-0.175 0.063c-0.794 0.275-1.603 0.317-2.429 0.127-0.815-0.191-1.518-0.577-2.111-1.159-0.593-0.593-0.984-1.296-1.175-2.111-0.19-0.825-0.148-1.635 0.127-2.429l0.079-0.19c0.053-0.148 0.048-0.296-0.016-0.444-0.053-0.148-0.153-0.254-0.302-0.317l-0.984-0.397c-0.148-0.063-0.296-0.063-0.444 0s-0.254 0.169-0.318 0.317l-0.079 0.19c-0.37 0.741-0.915 1.339-1.635 1.794-0.709 0.444-1.482 0.667-2.318 0.667-0.825 0-1.598-0.222-2.317-0.667-0.709-0.455-1.249-1.053-1.619-1.794-0.095-0.233-0.222-0.392-0.381-0.476s-0.317-0.095-0.476-0.032l-0.984 0.397c-0.148 0.063-0.254 0.175-0.317 0.333-0.063 0.148-0.063 0.296 0 0.444 0.307 0.889 0.37 1.751 0.191 2.587-0.18 0.825-0.566 1.534-1.159 2.127s-1.302 0.984-2.127 1.175c-0.815 0.19-1.614 0.148-2.397-0.127l-0.206-0.079c-0.095-0.032-0.196-0.042-0.302-0.032-0.095 0.011-0.185 0.048-0.27 0.111s-0.148 0.143-0.19 0.238l-0.397 0.984c-0.063 0.148-0.063 0.296 0 0.444s0.169 0.254 0.317 0.317l0.19 0.079c0.37 0.18 0.704 0.413 1 0.698 0.307 0.275 0.566 0.587 0.778 0.937 0.222 0.339 0.392 0.709 0.508 1.111 0.116 0.392 0.175 0.794 0.175 1.206 0 0.825-0.228 1.598-0.683 2.318-0.444 0.709-1.037 1.249-1.778 1.619-0.233 0.095-0.392 0.222-0.476 0.381s-0.095 0.318-0.032 0.476l0.397 0.984c0.063 0.148 0.169 0.254 0.317 0.317 0.159 0.064 0.312 0.064 0.46 0 0.54-0.19 1.085-0.286 1.635-0.286 1.217 0 2.243 0.418 3.079 1.254 0.593 0.593 0.984 1.302 1.175 2.127 0.19 0.815 0.148 1.614-0.127 2.397l-0.079 0.191c-0.053 0.159-0.053 0.312 0 0.46 0.063 0.148 0.169 0.254 0.317 0.318l0.984 0.397c0.148 0.064 0.296 0.064 0.444 0s0.254-0.169 0.317-0.317l0.079-0.191c0.37-0.741 0.91-1.333 1.619-1.778 0.72-0.455 1.492-0.683 2.317-0.683 0.836 0 1.608 0.228 2.317 0.683 0.72 0.444 1.265 1.037 1.635 1.778 0.095 0.233 0.222 0.392 0.381 0.476s0.317 0.095 0.476 0.032l0.984-0.397c0.148-0.064 0.254-0.169 0.318-0.318 0.063-0.159 0.063-0.312 0-0.46-0.296-0.889-0.36-1.746-0.191-2.572 0.18-0.836 0.566-1.55 1.159-2.143s1.296-0.984 2.111-1.175c0.825-0.191 1.63-0.148 2.413 0.127l0.19 0.079c0.148 0.053 0.296 0.053 0.445 0 0.159-0.063 0.27-0.169 0.333-0.317zM11.746 11.825c1.175-1.175 2.593-1.762 4.254-1.762s3.074 0.587 4.238 1.762c1.175 1.164 1.762 2.577 1.762 4.238s-0.587 3.079-1.762 4.254c-1.164 1.164-2.577 1.746-4.238 1.746s-3.079-0.582-4.254-1.746c-1.164-1.175-1.746-2.593-1.746-4.254s0.582-3.074 1.746-4.238zM13.175 18.889c0.783 0.783 1.725 1.175 2.825 1.175s2.042-0.392 2.825-1.175c0.783-0.783 1.175-1.725 1.175-2.825s-0.392-2.042-1.175-2.825c-0.783-0.783-1.725-1.175-2.825-1.175s-2.042 0.392-2.825 1.175c-0.783 0.783-1.175 1.725-1.175 2.825s0.392 2.042 1.175 2.825z"></path>
</svg>
