<!-- Generated by IcoMoon.io -->
<svg version="1.1" xmlns="http://www.w3.org/2000/svg" width="32" height="32" viewBox="0 0 32 32">
<title>shuffle-green</title>
<path fill="#57b560" d="M9 12.27l-0.206-0.397c-0.899-1.005-1.968-1.788-3.206-2.349-1.228-0.571-2.492-0.857-3.794-0.857v-2c1.63 0 3.201 0.349 4.714 1.048 1.513 0.688 2.81 1.672 3.889 2.952l-1.397 1.603zM24 21.667v-3l7 4-7 4v-3c-1.429 0-2.81-0.254-4.143-0.762-1.323-0.508-2.476-1.254-3.46-2.238l1.206-1.603c1.947 1.735 4.079 2.603 6.397 2.603zM24 9.667c-1.302 0-2.571 0.286-3.81 0.857-1.228 0.561-2.291 1.344-3.19 2.349l-6.794 7.794c-0.984 1.28-2.222 2.27-3.714 2.968-1.492 0.688-3.058 1.032-4.698 1.032v-2c1.302 0 2.566-0.28 3.794-0.841 1.238-0.571 2.307-1.36 3.206-2.365l6.81-7.794c0.984-1.28 2.222-2.265 3.714-2.952 1.492-0.698 3.053-1.048 4.683-1.048v-3l7 4-7 4v-3z"></path>
</svg>
