<!-- Generated by IcoMoon.io -->
<svg version="1.1" xmlns="http://www.w3.org/2000/svg" width="32" height="32" viewBox="0 0 32 32">
<title>shuffle-circle-green</title>
<path fill="#fff" d="M32 16c0 8.837-7.163 16-16 16s-16-7.163-16-16c0-8.837 7.163-16 16-16s16 7.163 16 16z"></path>
<path fill="#57b560" d="M11.8 14.562l-0.124-0.238c-0.54-0.603-1.181-1.073-1.924-1.41-0.736-0.343-1.495-0.514-2.276-0.514v-1.2c0.978 0 1.921 0.21 2.829 0.629 0.908 0.413 1.686 1.003 2.333 1.771l-0.838 0.962zM20.8 20.2v-1.8l4.2 2.4-4.2 2.4v-1.8c-0.857 0-1.686-0.152-2.486-0.457-0.794-0.305-1.486-0.752-2.076-1.343l0.724-0.962c1.168 1.041 2.448 1.562 3.838 1.562zM20.8 13c-0.781 0-1.543 0.171-2.286 0.514-0.736 0.337-1.375 0.806-1.914 1.41l-4.076 4.676c-0.59 0.768-1.333 1.362-2.229 1.781-0.895 0.413-1.835 0.619-2.819 0.619v-1.2c0.781 0 1.54-0.168 2.276-0.505 0.743-0.343 1.384-0.816 1.924-1.419l4.086-4.676c0.59-0.768 1.333-1.359 2.228-1.771 0.895-0.419 1.832-0.629 2.81-0.629v-1.8l4.2 2.4-4.2 2.4v-1.8z"></path>
</svg>
