<!-- Generated by IcoMoon.io -->
<svg version="1.1" xmlns="http://www.w3.org/2000/svg" width="32" height="32" viewBox="0 0 32 32">
<title>shuffle-dot-green</title>
<path fill="#57b560" d="M18.667 29.333c0 1.473-1.194 2.667-2.667 2.667s-2.667-1.194-2.667-2.667c0-1.473 1.194-2.667 2.667-2.667s2.667 1.194 2.667 2.667z"></path>
<path fill="#57b560" d="M10.8 5.869l-0.138-0.265c-0.6-0.67-1.312-1.192-2.138-1.566-0.818-0.381-1.661-0.571-2.529-0.571v-1.333c1.086 0 2.134 0.233 3.143 0.698 1.009 0.459 1.873 1.115 2.593 1.968l-0.931 1.069zM20.8 12.133v-2l4.667 2.667-4.667 2.667v-2c-0.952 0-1.873-0.169-2.762-0.508-0.882-0.339-1.651-0.836-2.307-1.492l0.804-1.069c1.298 1.157 2.72 1.735 4.265 1.735zM20.8 4.133c-0.868 0-1.714 0.19-2.54 0.571-0.818 0.374-1.527 0.896-2.127 1.566l-4.529 5.196c-0.656 0.854-1.481 1.513-2.476 1.979-0.995 0.459-2.039 0.688-3.132 0.688v-1.333c0.868 0 1.711-0.187 2.529-0.561 0.825-0.381 1.538-0.907 2.138-1.577l4.54-5.196c0.656-0.854 1.482-1.51 2.476-1.968 0.995-0.466 2.035-0.698 3.122-0.698v-2l4.667 2.667-4.667 2.667v-2z"></path>
</svg>
