<svg aria-hidden="true" style="position: absolute; width: 0; height: 0; overflow: hidden;" version="1.1" xmlns="http://www.w3.org/2000/svg" xmlns:xlink="http://www.w3.org/1999/xlink">
<defs>
<symbol id="icon-Arrow-down" viewBox="0 0 32 32">
<path fill="#fff" style="fill: var(--color1, #fff)" d="M30.392 8.276l-14.392 16.851-14.392-16.851 1.23-1.057 13.162 15.429 13.162-15.429 1.23 1.057z"></path>
</symbol>
<symbol id="icon-Arrow-left-circle" viewBox="0 0 32 32">
<path fill="#262626" style="fill: var(--color2, #262626)" opacity="0.35" d="M32 16c0 8.837-7.163 16-16 16s-16-7.163-16-16c0-8.837 7.163-16 16-16s16 7.163 16 16z"></path>
<path fill="#fff" style="fill: var(--color1, #fff)" d="M18.988 23.431l-8.7-7.431 8.7-7.431 0.546 0.635-7.966 6.796 7.966 6.796-0.546 0.635z"></path>
</symbol>
<symbol id="icon-Back-arrow" viewBox="0 0 32 32">
<path fill="#fff" style="fill: var(--color1, #fff)" d="M23.976 30.861l-17.401-14.861 17.401-14.861 1.091 1.27-15.933 13.591 15.933 13.591-1.091 1.27z"></path>
</symbol>
<symbol id="icon-Close" viewBox="0 0 32 32">
<path fill="#b3b3b3" style="fill: var(--color3, #b3b3b3)" d="M30.67 3.033l-13.040 13.040 13.040 13.022-1.648 1.648-13.022-13.040-13.040 13.040-1.63-1.648 13.040-13.022-13.040-13.040 1.63-1.63 13.040 13.040 13.022-13.040 1.648 1.63z"></path>
</symbol>
<symbol id="icon-Devices" viewBox="0 0 32 32">
<path fill="#fff" style="fill: var(--color1, #fff)" d="M1.333 6.175c0-0.37 0.127-0.683 0.381-0.936 0.265-0.265 0.582-0.397 0.952-0.397h9.333v1.333h-9.333v16h9.333v1.333h-9.333c-0.37 0-0.688-0.127-0.952-0.381-0.254-0.264-0.381-0.582-0.381-0.952v-16zM6.857 27.318c-0.127-0.137-0.19-0.296-0.19-0.476s0.064-0.333 0.19-0.46c0.138-0.138 0.296-0.206 0.476-0.206h4.667v1.333h-4.667c-0.18 0-0.339-0.064-0.476-0.19zM29.333 4.842c0.37 0 0.682 0.132 0.936 0.397 0.265 0.254 0.397 0.566 0.397 0.936v20c0 0.37-0.132 0.688-0.397 0.952-0.254 0.254-0.566 0.381-0.936 0.381h-12c-0.37 0-0.688-0.127-0.952-0.381-0.254-0.264-0.381-0.582-0.381-0.952v-20c0-0.37 0.127-0.683 0.381-0.936 0.265-0.265 0.582-0.397 0.952-0.397h12zM17.349 26.175l11.984-0.016-0.016-19.968h-11.984l0.016 19.984zM20.508 16.683c0.783-0.783 1.725-1.175 2.825-1.175s2.042 0.392 2.825 1.175c0.783 0.783 1.175 1.725 1.175 2.825s-0.392 2.042-1.175 2.825c-0.783 0.783-1.725 1.175-2.825 1.175s-2.042-0.391-2.825-1.175c-0.783-0.783-1.175-1.725-1.175-2.825s0.391-2.042 1.175-2.825zM21.444 21.398c0.529 0.518 1.159 0.778 1.889 0.778s1.354-0.259 1.873-0.778c0.529-0.529 0.794-1.159 0.794-1.889s-0.265-1.355-0.794-1.873c-0.519-0.529-1.143-0.794-1.873-0.794s-1.36 0.265-1.889 0.794c-0.518 0.519-0.778 1.143-0.778 1.873s0.259 1.36 0.778 1.889zM24.27 11.128c-0.254 0.254-0.566 0.381-0.936 0.381s-0.688-0.127-0.952-0.381c-0.254-0.265-0.381-0.582-0.381-0.952s0.127-0.683 0.381-0.937c0.265-0.265 0.582-0.397 0.952-0.397s0.682 0.132 0.936 0.397c0.265 0.254 0.397 0.566 0.397 0.937s-0.132 0.688-0.397 0.952z"></path>
</symbol>
<symbol id="icon-Download-green" viewBox="0 0 32 32">
<path fill="#57b560" style="fill: var(--color4, #57b560)" d="M9.783 3.337c1.781-0.763 3.648-1.145 5.601-1.145s3.821 0.382 5.601 1.145c1.781 0.763 3.312 1.791 4.594 3.083 1.292 1.282 2.32 2.813 3.083 4.594s1.145 3.648 1.145 5.601-0.382 3.821-1.145 5.601c-0.763 1.781-1.791 3.317-3.083 4.609-1.282 1.282-2.813 2.305-4.594 3.068s-3.648 1.145-5.601 1.145-3.821-0.382-5.601-1.145c-1.781-0.763-3.317-1.786-4.609-3.068-1.282-1.292-2.305-2.829-3.068-4.609s-1.145-3.648-1.145-5.601c0-1.954 0.382-3.821 1.145-5.601s1.786-3.312 3.068-4.594c1.292-1.292 2.829-2.32 4.609-3.083zM15.385 25.3l5.968-6.914-1.465-1.252-3.541 4.106v-12.317h-1.923v12.302l-3.526-4.090-1.45 1.252 5.937 6.914z"></path>
</symbol>
<symbol id="icon-Download-stroke" viewBox="0 0 32 32">
<path fill="#b2b2b2" style="fill: var(--color5, #b2b2b2)" d="M16.696 22.079l4.77-5.515 0.778 0.679-6.062 7.039-6.062-7.039 0.795-0.679 4.737 5.499v-13.714h1.043v13.731zM10.286 2.253c1.877-0.806 3.837-1.209 5.88-1.209 2.054 0 4.014 0.403 5.88 1.209 1.877 0.795 3.489 1.866 4.836 3.213s2.418 2.959 3.213 4.836c0.806 1.866 1.209 3.826 1.209 5.88 0 2.043-0.403 4.003-1.209 5.88-0.795 1.866-1.866 3.473-3.213 4.82s-2.959 2.424-4.836 3.23c-1.866 0.795-3.826 1.192-5.88 1.192-2.043 0-4.003-0.398-5.88-1.192-1.866-0.806-3.473-1.883-4.82-3.23s-2.424-2.954-3.23-4.82c-0.795-1.877-1.193-3.837-1.193-5.88 0-2.054 0.397-4.014 1.193-5.88 0.806-1.877 1.883-3.489 3.23-4.836s2.954-2.418 4.82-3.213zM10.7 29.151c1.745 0.74 3.567 1.11 5.466 1.11 1.91 0 3.732-0.37 5.466-1.11 1.745-0.751 3.246-1.756 4.505-3.015s2.258-2.755 2.998-4.489c0.751-1.745 1.126-3.567 1.126-5.466 0-1.91-0.375-3.732-1.126-5.466-0.74-1.745-1.739-3.246-2.998-4.505s-2.761-2.258-4.505-2.998c-1.734-0.751-3.555-1.126-5.466-1.126-1.899 0-3.721 0.375-5.466 1.126-1.734 0.74-3.23 1.739-4.489 2.998s-2.264 2.761-3.014 4.505c-0.74 1.734-1.11 3.556-1.11 5.466 0 1.899 0.37 3.721 1.11 5.466 0.751 1.734 1.756 3.23 3.014 4.489s2.755 2.264 4.489 3.015z"></path>
</symbol>
<symbol id="icon-Heart-green" viewBox="0 0 32 32">
<path fill="#57b560" style="fill: var(--color4, #57b560)" d="M29.261 3.955c1.826 1.826 2.739 4.039 2.739 6.639 0 2.588-0.913 4.795-2.739 6.621l-10.068 11.882c-0.907 0.919-1.971 1.378-3.193 1.378-0.593 0-1.155-0.115-1.687-0.345-0.52-0.242-0.949-0.587-1.288-1.034l-10.286-11.882c-1.826-1.826-2.739-4.033-2.739-6.621 0-2.6 0.913-4.813 2.739-6.639 1.137-1.137 2.449-1.941 3.937-2.413 1.5-0.472 3.017-0.562 4.553-0.272s2.896 0.955 4.082 1.995c0.157 0.157 0.387 0.236 0.689 0.236 0.133 0 0.254-0.018 0.363-0.054 0.121-0.036 0.206-0.073 0.254-0.109l0.073-0.073c1.197-0.98 2.558-1.615 4.082-1.905s3.035-0.212 4.535 0.236c1.512 0.447 2.83 1.234 3.955 2.358z"></path>
</symbol>
<symbol id="icon-Heart-stroke" viewBox="0 0 32 32">
<path fill="#b9babb" style="fill: var(--color6, #b9babb)" d="M17.576 29.511c-0.5 0.225-1.025 0.338-1.576 0.338s-1.082-0.112-1.595-0.338c-0.5-0.238-0.925-0.569-1.276-0.994l-10.28-12.025c-0.55-0.563-1.026-1.182-1.426-1.857-0.388-0.675-0.682-1.394-0.882-2.157s-0.3-1.544-0.3-2.345c0-1.201 0.225-2.351 0.675-3.452 0.463-1.113 1.119-2.095 1.97-2.945 1.101-1.088 2.37-1.851 3.808-2.289s2.895-0.506 4.371-0.206c1.476 0.3 2.808 0.944 3.996 1.932 0.263 0.225 0.575 0.338 0.938 0.338 0.338 0 0.644-0.106 0.919-0.319 0.713-0.6 1.488-1.075 2.326-1.426 0.85-0.35 1.707-0.563 2.57-0.638 0.875-0.088 1.745-0.050 2.608 0.113 0.863 0.15 1.695 0.444 2.495 0.882 0.8 0.425 1.532 0.963 2.195 1.613 0.85 0.85 1.501 1.832 1.951 2.945 0.463 1.101 0.694 2.257 0.694 3.47 0 1.201-0.231 2.351-0.694 3.452-0.45 1.101-1.101 2.076-1.951 2.926l-10.242 11.987c-0.35 0.425-0.782 0.756-1.294 0.994zM9.284 2.648c-0.963 0-1.907 0.188-2.833 0.563-0.913 0.375-1.726 0.925-2.439 1.651-0.713 0.7-1.257 1.507-1.632 2.42-0.375 0.9-0.563 1.851-0.563 2.851 0 0.663 0.081 1.313 0.244 1.951 0.175 0.625 0.425 1.219 0.75 1.782s0.725 1.082 1.201 1.557l10.317 12.062c0.438 0.525 0.994 0.788 1.67 0.788s1.232-0.263 1.67-0.788l10.28-12.024c1.488-1.488 2.232-3.264 2.232-5.328 0-1-0.188-1.951-0.563-2.851-0.375-0.913-0.919-1.72-1.632-2.42-1.363-1.376-3.008-2.107-4.934-2.195-1.913-0.088-3.614 0.488-5.102 1.726-0.075 0.063-0.175 0.138-0.3 0.225-0.125 0.075-0.35 0.175-0.675 0.3-0.325 0.113-0.65 0.169-0.975 0.169-0.338 0-0.669-0.056-0.994-0.169-0.325-0.125-0.55-0.231-0.675-0.319s-0.225-0.163-0.3-0.225c-1.376-1.151-2.958-1.726-4.746-1.726z"></path>
</symbol>
<symbol id="icon-Home" viewBox="0 0 32 32">
<path fill="#b3b3b3" style="fill: var(--color3, #b3b3b3)" d="M16.365 2.315l-12.683 7.371v19.361h8.952v-10.445h7.46v10.444h8.952v-19.415l-12.683-7.318zM16.365 0.574l14.175 8.189v21.777h-11.937v-10.444h-4.476v10.444h-11.937v-21.706l14.175-8.26z"></path>
</symbol>
<symbol id="icon-Library" viewBox="0 0 32 32">
<path fill="#b3b3b3" style="fill: var(--color3, #b3b3b3)" d="M0.281 30.386v-29.684h1.649v29.684h-1.649zM9.351 30.386v-29.684h1.649v29.684h-1.649zM17.852 0.859l12.859 28.879-1.492 0.667-12.859-28.879 1.492-0.667z"></path>
</symbol>
<symbol id="icon-More" viewBox="0 0 32 32">
<path fill="#b3b3b3" style="fill: var(--color3, #b3b3b3)" d="M0.783 14.116c0.522-0.522 1.15-0.783 1.884-0.783s1.362 0.261 1.884 0.783c0.522 0.522 0.783 1.15 0.783 1.884 0 0.48-0.12 0.924-0.36 1.333s-0.564 0.734-0.974 0.974c-0.409 0.24-0.854 0.36-1.333 0.36-0.734 0-1.362-0.261-1.884-0.783s-0.783-1.15-0.783-1.884c0-0.734 0.261-1.362 0.783-1.884zM14.116 14.116c0.522-0.522 1.15-0.783 1.884-0.783s1.362 0.261 1.884 0.783c0.522 0.522 0.783 1.15 0.783 1.884s-0.261 1.362-0.783 1.884c-0.522 0.522-1.15 0.783-1.884 0.783s-1.362-0.261-1.884-0.783c-0.522-0.522-0.783-1.15-0.783-1.884s0.261-1.362 0.783-1.884zM27.45 14.116c0.522-0.522 1.15-0.783 1.884-0.783s1.362 0.261 1.884 0.783c0.522 0.522 0.783 1.15 0.783 1.884s-0.261 1.362-0.783 1.884c-0.522 0.522-1.15 0.783-1.884 0.783s-1.362-0.261-1.884-0.783c-0.522-0.522-0.783-1.15-0.783-1.884s0.261-1.362 0.783-1.884z"></path>
</symbol>
<symbol id="icon-Next" viewBox="0 0 32 32">
<path fill="#fff" style="fill: var(--color1, #fff)" d="M4.089 1.822c-0.459-0.282-0.918-0.282-1.378 0-0.474 0.267-0.711 0.667-0.711 1.2v25.956c0 0.533 0.237 0.941 0.711 1.222 0.459 0.267 0.919 0.259 1.378-0.022l20.311-11.711v11.533c0 0.385 0.141 0.718 0.422 1 0.267 0.267 0.593 0.4 0.978 0.4h2.8c0.385 0 0.719-0.133 1-0.4 0.267-0.281 0.4-0.615 0.4-1v-28c0-0.385-0.133-0.711-0.4-0.978-0.281-0.281-0.615-0.422-1-0.422h-2.8c-0.385 0-0.711 0.141-0.978 0.422-0.281 0.267-0.422 0.593-0.422 0.978v11.533l-20.311-11.711z"></path>
</symbol>
<symbol id="icon-Pause-circle" viewBox="0 0 32 32">
<path fill="#fff" style="fill: var(--color1, #fff)" d="M32 16c0 8.837-7.163 16-16 16s-16-7.163-16-16c0-8.837 7.163-16 16-16s16 7.163 16 16z"></path>
<path fill="#181718" style="fill: var(--color7, #181718)" d="M18.286 10.417c0-0.14 0.048-0.258 0.145-0.355 0.102-0.102 0.223-0.153 0.363-0.153h2.032c0.14 0 0.258 0.051 0.355 0.153 0.102 0.097 0.153 0.215 0.153 0.355v10.667c0 0.134-0.051 0.253-0.153 0.355-0.097 0.102-0.215 0.153-0.355 0.153h-2.032c-0.14 0-0.261-0.051-0.363-0.153-0.097-0.102-0.145-0.22-0.145-0.355v-10.667zM11.683 21.591c-0.14 0-0.261-0.051-0.363-0.153-0.097-0.102-0.145-0.22-0.145-0.355v-10.667c0-0.14 0.048-0.258 0.145-0.355 0.102-0.102 0.223-0.153 0.363-0.153h2.032c0.14 0 0.258 0.051 0.355 0.153 0.102 0.097 0.153 0.215 0.153 0.355v10.667c0 0.134-0.051 0.253-0.153 0.355-0.097 0.102-0.215 0.153-0.355 0.153h-2.032z"></path>
</symbol>
<symbol id="icon-Play-circle" viewBox="0 0 32 32">
<path fill="#57b560" style="fill: var(--color4, #57b560)" d="M32 16c0 8.837-7.163 16-16 16s-16-7.163-16-16c0-8.837 7.163-16 16-16s16 7.163 16 16z"></path>
<path fill="#fff" style="fill: var(--color1, #fff)" d="M13 21.421c-0.222 0.132-0.444 0.135-0.667 0.008-0.222-0.132-0.333-0.325-0.333-0.579v-9.698c0-0.254 0.111-0.444 0.333-0.571 0.222-0.132 0.444-0.132 0.667 0l8.389 4.841c0.222 0.132 0.333 0.325 0.333 0.579s-0.111 0.447-0.333 0.579l-8.389 4.841z"></path>
</symbol>
<symbol id="icon-Previous" viewBox="0 0 32 32">
<path fill="#fff" style="fill: var(--color1, #fff)" d="M27.911 1.822c0.459-0.282 0.919-0.282 1.378 0 0.474 0.267 0.711 0.667 0.711 1.2v25.956c0 0.533-0.237 0.941-0.711 1.222-0.459 0.267-0.918 0.259-1.378-0.022l-20.311-11.711v11.533c0 0.385-0.141 0.718-0.422 1-0.267 0.267-0.593 0.4-0.978 0.4h-2.8c-0.385 0-0.719-0.133-1-0.4-0.267-0.281-0.4-0.615-0.4-1v-28c0-0.385 0.133-0.711 0.4-0.978 0.281-0.281 0.615-0.422 1-0.422h2.8c0.385 0 0.711 0.141 0.978 0.422 0.282 0.267 0.422 0.593 0.422 0.978v11.533l20.311-11.711z"></path>
</symbol>
<symbol id="icon-Queue" viewBox="0 0 32 32">
<path fill="#fff" style="fill: var(--color1, #fff)" d="M1.644 0.356l8.766 5.067-8.766 5.067v-10.133zM1.644 29.911v-1.689h28.711v1.689h-28.711zM15.156 4.578h15.2v1.689h-15.2v-1.689zM1.644 18.089v-1.689h28.711v1.689h-28.711z"></path>
</symbol>
<symbol id="icon-Repeat" viewBox="0 0 32 32">
<path fill="#bababa" style="fill: var(--color8, #bababa)" d="M10.667 8.063c-2.201 0-4.085 0.783-5.651 2.349s-2.349 3.45-2.349 5.651c0 1.407 0.354 2.725 1.063 3.952l-1.159 0.667c-0.825-1.439-1.238-2.979-1.238-4.619 0-1.683 0.418-3.238 1.254-4.667 0.836-1.439 1.968-2.577 3.397-3.413 1.439-0.836 3-1.254 4.683-1.254h10.667v-3.333l6.349 3.667-6.349 3.667v-2.667h-10.667zM29.428 11.444c0.825 1.439 1.238 2.979 1.238 4.619 0 1.683-0.418 3.243-1.254 4.683-0.836 1.428-1.974 2.561-3.413 3.397-1.428 0.836-2.984 1.254-4.667 1.254h-10.667v3.333l-6.349-3.667 6.349-3.667v2.667h10.667c2.201 0 4.085-0.783 5.651-2.349s2.349-3.45 2.349-5.651c0-1.407-0.349-2.725-1.048-3.952l1.143-0.667z"></path>
</symbol>
<symbol id="icon-Search" viewBox="0 0 32 32">
<path fill="#b3b3b3" style="fill: var(--color3, #b3b3b3)" d="M23.285 22.511l6.554 7.691-1.137 0.959-6.572-7.674c-2.262 1.717-4.808 2.576-7.638 2.576-1.717 0-3.363-0.332-4.938-0.995-1.563-0.675-2.913-1.575-4.050-2.7-1.125-1.137-2.025-2.487-2.7-4.050-0.663-1.575-0.995-3.221-0.995-4.938s0.332-3.357 0.995-4.92c0.675-1.575 1.575-2.925 2.7-4.050 1.137-1.137 2.487-2.037 4.050-2.7 1.575-0.675 3.221-1.012 4.938-1.012s3.357 0.337 4.92 1.012c1.575 0.663 2.925 1.563 4.050 2.7 1.137 1.125 2.037 2.475 2.7 4.050 0.675 1.563 1.012 3.203 1.012 4.92 0 1.184-0.16 2.333-0.48 3.446s-0.77 2.149-1.35 3.108c-0.568 0.947-1.255 1.806-2.061 2.576zM8.879 23.079c1.717 0.995 3.588 1.492 5.613 1.492s3.896-0.497 5.613-1.492c1.717-1.006 3.073-2.368 4.068-4.085 1.007-1.717 1.51-3.588 1.51-5.613s-0.503-3.896-1.51-5.613c-0.995-1.717-2.35-3.073-4.068-4.068-1.717-1.007-3.588-1.51-5.613-1.51s-3.896 0.503-5.613 1.51c-1.717 0.995-3.079 2.351-4.085 4.068-0.995 1.717-1.492 3.588-1.492 5.613s0.497 3.896 1.492 5.613c1.007 1.717 2.368 3.079 4.085 4.085z"></path>
</symbol>
<symbol id="icon-Settings" viewBox="0 0 32 32">
<path fill="#fff" style="fill: var(--color1, #fff)" d="M29.333 18.206c0.688 0.296 1.175 0.778 1.46 1.444 0.286 0.656 0.291 1.318 0.016 1.984l-0.413 0.968c-0.265 0.656-0.73 1.122-1.397 1.397-0.656 0.275-1.318 0.275-1.984 0-0.466-0.159-0.926-0.185-1.381-0.079-0.444 0.095-0.831 0.302-1.159 0.619-0.318 0.328-0.529 0.714-0.635 1.159-0.095 0.444-0.069 0.878 0.079 1.302 0.275 0.698 0.28 1.381 0.016 2.048s-0.73 1.138-1.397 1.413l-0.984 0.413c-0.317 0.127-0.645 0.191-0.984 0.191-0.519 0-1-0.143-1.445-0.429-0.434-0.286-0.751-0.677-0.952-1.175-0.137-0.286-0.323-0.534-0.555-0.746-0.222-0.212-0.476-0.376-0.762-0.492-0.275-0.116-0.561-0.175-0.857-0.175-0.455 0-0.878 0.122-1.27 0.365s-0.683 0.572-0.873 0.984c-0.286 0.688-0.762 1.175-1.429 1.46s-1.328 0.291-1.984 0.016l-0.984-0.413c-0.656-0.275-1.122-0.741-1.397-1.397s-0.275-1.318 0-1.984c0.159-0.466 0.19-0.921 0.095-1.365-0.095-0.455-0.307-0.847-0.635-1.175-0.317-0.317-0.704-0.529-1.159-0.635-0.444-0.106-0.878-0.085-1.302 0.064-0.709 0.296-1.397 0.307-2.063 0.032-0.656-0.275-1.122-0.741-1.397-1.397l-0.413-0.984c-0.265-0.656-0.265-1.312 0-1.968 0.275-0.667 0.746-1.138 1.413-1.413 0.434-0.212 0.778-0.513 1.032-0.905s0.381-0.815 0.381-1.27c0-0.455-0.122-0.878-0.365-1.27s-0.571-0.682-0.984-0.873c-0.688-0.296-1.175-0.772-1.46-1.429-0.275-0.667-0.28-1.328-0.016-1.984l0.413-0.984c0.275-0.656 0.741-1.122 1.397-1.397 0.667-0.275 1.328-0.275 1.984 0 0.466 0.159 0.921 0.19 1.365 0.095 0.455-0.095 0.847-0.307 1.175-0.635 0.317-0.317 0.524-0.698 0.619-1.143 0.106-0.455 0.085-0.894-0.063-1.317-0.286-0.709-0.291-1.392-0.016-2.048 0.275-0.667 0.741-1.138 1.397-1.413l0.984-0.413c0.656-0.265 1.312-0.259 1.968 0.016 0.667 0.275 1.138 0.741 1.413 1.397 0.212 0.434 0.513 0.778 0.905 1.032s0.815 0.381 1.27 0.381c0.455 0 0.878-0.122 1.27-0.365s0.683-0.571 0.873-0.984c0.296-0.688 0.773-1.169 1.429-1.444 0.667-0.286 1.328-0.291 1.984-0.016l0.984 0.397c0.423 0.18 0.778 0.455 1.064 0.825s0.455 0.778 0.508 1.222c0.053 0.434-0.005 0.878-0.175 1.333-0.159 0.466-0.191 0.926-0.095 1.381 0.095 0.444 0.307 0.831 0.635 1.159 0.317 0.317 0.698 0.529 1.143 0.635 0.455 0.095 0.894 0.074 1.318-0.063l0.46 0.889-0.381-0.921c0.656-0.275 1.312-0.275 1.968 0 0.667 0.275 1.138 0.741 1.413 1.397l0.413 0.984c0.265 0.656 0.259 1.317-0.016 1.984-0.264 0.656-0.73 1.122-1.397 1.397-0.434 0.212-0.778 0.513-1.032 0.905s-0.381 0.815-0.381 1.27c0 0.455 0.122 0.878 0.365 1.27s0.571 0.682 0.984 0.873zM28.555 21.841l0.397-0.984c0.063-0.148 0.063-0.296 0-0.445-0.064-0.159-0.169-0.264-0.318-0.317l-0.19-0.095c-0.741-0.36-1.339-0.894-1.794-1.603-0.444-0.72-0.667-1.497-0.667-2.333s0.222-1.608 0.667-2.317c0.455-0.72 1.058-1.259 1.81-1.619 0.222-0.095 0.376-0.222 0.46-0.381 0.095-0.159 0.106-0.317 0.032-0.476l-0.397-0.984c-0.063-0.148-0.175-0.254-0.333-0.317-0.148-0.063-0.296-0.063-0.445 0l-0.175 0.063c-0.794 0.275-1.603 0.317-2.429 0.127-0.815-0.191-1.518-0.577-2.111-1.159-0.593-0.593-0.984-1.296-1.175-2.111-0.19-0.825-0.148-1.635 0.127-2.429l0.079-0.19c0.053-0.148 0.048-0.296-0.016-0.444-0.053-0.148-0.153-0.254-0.302-0.317l-0.984-0.397c-0.148-0.063-0.296-0.063-0.444 0s-0.254 0.169-0.318 0.317l-0.079 0.19c-0.37 0.741-0.915 1.339-1.635 1.794-0.709 0.444-1.482 0.667-2.318 0.667-0.825 0-1.598-0.222-2.317-0.667-0.709-0.455-1.249-1.053-1.619-1.794-0.095-0.233-0.222-0.392-0.381-0.476s-0.317-0.095-0.476-0.032l-0.984 0.397c-0.148 0.063-0.254 0.175-0.317 0.333-0.063 0.148-0.063 0.296 0 0.444 0.307 0.889 0.37 1.751 0.191 2.587-0.18 0.825-0.566 1.534-1.159 2.127s-1.302 0.984-2.127 1.175c-0.815 0.19-1.614 0.148-2.397-0.127l-0.206-0.079c-0.095-0.032-0.196-0.042-0.302-0.032-0.095 0.011-0.185 0.048-0.27 0.111s-0.148 0.143-0.19 0.238l-0.397 0.984c-0.063 0.148-0.063 0.296 0 0.444s0.169 0.254 0.317 0.317l0.19 0.079c0.37 0.18 0.704 0.413 1 0.698 0.307 0.275 0.566 0.587 0.778 0.937 0.222 0.339 0.392 0.709 0.508 1.111 0.116 0.392 0.175 0.794 0.175 1.206 0 0.825-0.228 1.598-0.683 2.318-0.444 0.709-1.037 1.249-1.778 1.619-0.233 0.095-0.392 0.222-0.476 0.381s-0.095 0.318-0.032 0.476l0.397 0.984c0.063 0.148 0.169 0.254 0.317 0.317 0.159 0.064 0.312 0.064 0.46 0 0.54-0.19 1.085-0.286 1.635-0.286 1.217 0 2.243 0.418 3.079 1.254 0.593 0.593 0.984 1.302 1.175 2.127 0.19 0.815 0.148 1.614-0.127 2.397l-0.079 0.191c-0.053 0.159-0.053 0.312 0 0.46 0.063 0.148 0.169 0.254 0.317 0.318l0.984 0.397c0.148 0.064 0.296 0.064 0.444 0s0.254-0.169 0.317-0.317l0.079-0.191c0.37-0.741 0.91-1.333 1.619-1.778 0.72-0.455 1.492-0.683 2.317-0.683 0.836 0 1.608 0.228 2.317 0.683 0.72 0.444 1.265 1.037 1.635 1.778 0.095 0.233 0.222 0.392 0.381 0.476s0.317 0.095 0.476 0.032l0.984-0.397c0.148-0.064 0.254-0.169 0.318-0.318 0.063-0.159 0.063-0.312 0-0.46-0.296-0.889-0.36-1.746-0.191-2.572 0.18-0.836 0.566-1.55 1.159-2.143s1.296-0.984 2.111-1.175c0.825-0.191 1.63-0.148 2.413 0.127l0.19 0.079c0.148 0.053 0.296 0.053 0.445 0 0.159-0.063 0.27-0.169 0.333-0.317zM11.746 11.825c1.175-1.175 2.593-1.762 4.254-1.762s3.074 0.587 4.238 1.762c1.175 1.164 1.762 2.577 1.762 4.238s-0.587 3.079-1.762 4.254c-1.164 1.164-2.577 1.746-4.238 1.746s-3.079-0.582-4.254-1.746c-1.164-1.175-1.746-2.593-1.746-4.254s0.582-3.074 1.746-4.238zM13.175 18.889c0.783 0.783 1.725 1.175 2.825 1.175s2.042-0.392 2.825-1.175c0.783-0.783 1.175-1.725 1.175-2.825s-0.392-2.042-1.175-2.825c-0.783-0.783-1.725-1.175-2.825-1.175s-2.042 0.392-2.825 1.175c-0.783 0.783-1.175 1.725-1.175 2.825s0.392 2.042 1.175 2.825z"></path>
</symbol>
<symbol id="icon-shuffle-circle" viewBox="0 0 32 32">
<path fill="#fff" style="fill: var(--color1, #fff)" d="M32 16c0 8.837-7.163 16-16 16s-16-7.163-16-16c0-8.837 7.163-16 16-16s16 7.163 16 16z"></path>
<path fill="#57b560" style="fill: var(--color4, #57b560)" d="M11.8 14.562l-0.124-0.238c-0.54-0.603-1.181-1.073-1.924-1.41-0.736-0.343-1.495-0.514-2.276-0.514v-1.2c0.978 0 1.921 0.21 2.829 0.629 0.908 0.413 1.686 1.003 2.333 1.771l-0.838 0.962zM20.8 20.2v-1.8l4.2 2.4-4.2 2.4v-1.8c-0.857 0-1.686-0.152-2.486-0.457-0.794-0.305-1.486-0.752-2.076-1.343l0.724-0.962c1.168 1.041 2.448 1.562 3.838 1.562zM20.8 13c-0.781 0-1.543 0.171-2.286 0.514-0.736 0.337-1.375 0.806-1.914 1.41l-4.076 4.676c-0.59 0.768-1.333 1.362-2.229 1.781-0.895 0.413-1.835 0.619-2.819 0.619v-1.2c0.781 0 1.54-0.168 2.276-0.505 0.743-0.343 1.384-0.816 1.924-1.419l4.086-4.676c0.59-0.768 1.333-1.359 2.228-1.771 0.895-0.419 1.832-0.629 2.81-0.629v-1.8l4.2 2.4-4.2 2.4v-1.8z"></path>
</symbol>
<symbol id="icon-shuffle-dot" viewBox="0 0 32 32">
<path fill="#57b560" style="fill: var(--color4, #57b560)" d="M18.667 29.333c0 1.473-1.194 2.667-2.667 2.667s-2.667-1.194-2.667-2.667c0-1.473 1.194-2.667 2.667-2.667s2.667 1.194 2.667 2.667z"></path>
<path fill="#57b560" style="fill: var(--color4, #57b560)" d="M10.8 5.869l-0.138-0.265c-0.6-0.67-1.312-1.192-2.138-1.566-0.818-0.381-1.661-0.571-2.529-0.571v-1.333c1.086 0 2.134 0.233 3.143 0.698 1.009 0.459 1.873 1.115 2.593 1.968l-0.931 1.069zM20.8 12.133v-2l4.667 2.667-4.667 2.667v-2c-0.952 0-1.873-0.169-2.762-0.508-0.882-0.339-1.651-0.836-2.307-1.492l0.804-1.069c1.298 1.157 2.72 1.735 4.265 1.735zM20.8 4.133c-0.868 0-1.714 0.19-2.54 0.571-0.818 0.374-1.527 0.896-2.127 1.566l-4.529 5.196c-0.656 0.854-1.481 1.513-2.476 1.979-0.995 0.459-2.039 0.688-3.132 0.688v-1.333c0.868 0 1.711-0.187 2.529-0.561 0.825-0.381 1.538-0.907 2.138-1.577l4.54-5.196c0.656-0.854 1.482-1.51 2.476-1.968 0.995-0.466 2.035-0.698 3.122-0.698v-2l4.667 2.667-4.667 2.667v-2z"></path>
</symbol>
<symbol id="icon-shuffle-green" viewBox="0 0 32 32">
<path fill="#57b560" style="fill: var(--color4, #57b560)" d="M9 12.27l-0.206-0.397c-0.899-1.005-1.968-1.788-3.206-2.349-1.228-0.571-2.492-0.857-3.794-0.857v-2c1.63 0 3.201 0.349 4.714 1.048 1.513 0.688 2.81 1.672 3.889 2.952l-1.397 1.603zM24 21.667v-3l7 4-7 4v-3c-1.429 0-2.81-0.254-4.143-0.762-1.323-0.508-2.476-1.254-3.46-2.238l1.206-1.603c1.947 1.735 4.079 2.603 6.397 2.603zM24 9.667c-1.302 0-2.571 0.286-3.81 0.857-1.228 0.561-2.291 1.344-3.19 2.349l-6.794 7.794c-0.984 1.28-2.222 2.27-3.714 2.968-1.492 0.688-3.058 1.032-4.698 1.032v-2c1.302 0 2.566-0.28 3.794-0.841 1.238-0.571 2.307-1.36 3.206-2.365l6.81-7.794c0.984-1.28 2.222-2.265 3.714-2.952 1.492-0.698 3.053-1.048 4.683-1.048v-3l7 4-7 4v-3z"></path>
</symbol>
<symbol id="icon-camera" viewBox="0 0 32 32">
<path d="M9.5 19c0 3.59 2.91 6.5 6.5 6.5s6.5-2.91 6.5-6.5-2.91-6.5-6.5-6.5-6.5 2.91-6.5 6.5zM30 8h-7c-0.5-2-1-4-3-4h-8c-2 0-2.5 2-3 4h-7c-1.1 0-2 0.9-2 2v18c0 1.1 0.9 2 2 2h28c1.1 0 2-0.9 2-2v-18c0-1.1-0.9-2-2-2zM16 27.875c-4.902 0-8.875-3.973-8.875-8.875s3.973-8.875 8.875-8.875c4.902 0 8.875 3.973 8.875 8.875s-3.973 8.875-8.875 8.875zM30 14h-4v-2h4v2z"></path>
</symbol>
</defs>
</svg>
